<?xml version="1.0" encoding="UTF-8"?>
<svg id="a" data-name="图层 1" xmlns="http://www.w3.org/2000/svg" viewBox="0 0 100 20">
  <g>
    <rect y="13.6" width="100" height="2.4" style="fill: #5bcffa;"/>
    <rect y="11.2" width="100" height="2.4" style="fill: #f5abb9;"/>
    <rect y="8.8" width="100" height="2.4" style="fill: #fff;"/>
    <rect y="6.4" width="100" height="2.4" style="fill: #f5abb9;"/>
    <rect y="4" width="100" height="2.4" style="fill: #5bcffa;"/>
  </g>
  <g>
    <path d="M50.06.21c.66,0,2.13,1.3,2.13,1.3,0,0,2.59-.25,3.08.05.48.31.94,2.59.94,2.59,0,0,1.86.33,2.19.81.33.48.13,2.75.13,2.75,0,0,1.27,1.42,1.22,2.13-.05.71-1.3,2.16-1.3,2.16,0,0,.43,2.31.15,2.82-.28.51-2.34,1.42-2.34,1.42,0,0-.76,1.96-1.12,2.19-.36.23-2.97-.05-2.97-.05,0,0-1.58,1.37-2.01,1.4s-2.13-1.42-2.13-1.42c0,0-2.59.36-2.97.13-.43-.26-1.07-2.08-1.07-2.08,0,0-2.05-.53-2.39-1.07-.25-.41-.18-2.8-.18-2.8,0,0-1.14-1.73-1.17-2.44-.03-.56,1.35-2.16,1.35-2.16,0,0-.2-2.52.08-3s1.91-.64,1.91-.64c0,0,.74-2.36,1.25-2.67.51-.31,3,.1,3,.1,0,0,1.63-1.52,2.24-1.52Z" style="fill: #afafaf;"/>
    <path d="M50,.8c-.3-.03-1.93,1.55-1.93,1.55,0,0-2.49-.25-2.77-.13-.28.13-1.07,2.49-1.07,2.49,0,0-1.86.25-2.11.61s.13,2.77.13,2.77c0,0-1.37,1.68-1.37,1.96s1.27,2.19,1.27,2.19c0,0-.23,1.91-.08,2.16s2.21.97,2.21.97c0,0,.66,2.08,1.02,2.21.36.13,2.85-.23,2.85-.23,0,0,1.6,1.22,1.88,1.22s1.8-1.3,1.8-1.3c0,0,2.69.31,2.95.2s1.3-2.26,1.3-2.26c0,0,1.91-.64,2.01-.94s-.38-2.75-.38-2.75c0,0,1.45-1.58,1.42-1.98-.03-.41-1.27-1.75-1.27-1.75,0,0,.2-2.26.03-2.57-.18-.31-2.19-.61-2.19-.61,0,0-.51-2.31-.76-2.47-.25-.15-2.72.13-2.72.13,0,0-1.93-1.45-2.21-1.47Z" style="fill: #e2e2e2;"/>
    <path d="M49.98,1.66s1.7,1.32,1.93,1.37c.23.05,2.49-.28,2.49-.28,0,0,.48,2.24.64,2.39s2.11.59,2.11.59c0,0-.05,2.13.03,2.26s1.12,1.58,1.12,1.58c0,0-1.3,1.6-1.35,1.8s.48,2.57.48,2.57c0,0-1.83.71-1.98.84s-1.02,1.96-1.02,1.96c0,0-2.52-.28-2.82-.2s-1.58,1.12-1.58,1.12c0,0-1.58-1.02-1.8-1.09s-2.64.28-2.64.28c0,0-.79-1.96-.92-2.08s-1.88-.81-1.88-.81c0,0,.13-1.98.08-2.13-.05-.15-1.17-1.8-1.17-1.8,0,0,1.17-1.55,1.25-1.88s-.15-2.36-.15-2.36c0,0,1.88-.43,2.01-.56s.84-2.39.84-2.39c0,0,2.31.36,2.57.31s1.78-1.45,1.78-1.45Z" style="fill: #feffff;"/>
    <path d="M50.59,4.37c.04.31-.86.36-1.84.86-.9.45-4.14,2.72-2.31,6.35.81,1.6,2.42,2.25,4.14,2.04,2.12-.25,3.87-1.98,3.32-4.22-.34-1.4-1.33-1.92-2.32-2.03-1.36-.16-2.5.8-2.52,1.84-.03,1.78,2.09,1.57,2.06.66s.47-.99.61-1.01c.14-.02.77.13.8.94s-.53,2.44-2.63,2.3c-2.22-.16-2.45-2.31-2.34-3.19.05-.44.57-2.8,3.35-2.99,2.8-.19,4.33,2.01,4.42,3.83.19,3.65-2.69,5.58-5.75,5.4-3.05-.17-4.99-2.83-4.92-5.88.07-3.21,2.77-4.51,3.56-4.85.86-.37,2.32-.45,2.37-.06Z" style="fill: #ef7ead;"/>
  </g>
</svg>